<?xml version="1.0" encoding="utf-8"?>
<!-- Generator: Adobe Illustrator 22.0.1, SVG Export Plug-In . SVG Version: 6.00 Build 0)  -->
<svg version="1.1" id="Layer_1" xmlns="http://www.w3.org/2000/svg" xmlns:xlink="http://www.w3.org/1999/xlink" x="0px" y="0px"
	 viewBox="0 0 69.2 69.5" style="enable-background:new 0 0 69.2 69.5;" xml:space="preserve">
<style type="text/css">
	.st0{fill:#666666;}
	.st1{fill:#FFFFFF;}
	.st2{fill:#EEF3F9;}
	.st3{fill:#E6E6E6;}
	.st4{fill:#67AAF9;}
	.st5{fill:#0FA3F4;}
	.st6{fill:url(#SVGID_1_);}
	.st7{fill:url(#SVGID_2_);}
	.st8{fill:none;stroke:#444242;stroke-width:0.4271;stroke-miterlimit:10;}
	.st9{fill:url(#SVGID_3_);}
	.st10{fill:url(#SVGID_4_);}
	.st11{fill:#E4E9F7;}
	.st12{fill:#F4F6F9;}
	.st13{fill:#2D2B2B;}
	.st14{fill:#494949;}
	.st15{fill:#C4E0F9;}
	.st16{fill:#EBF0F8;}
	.st17{fill:#C2C3C9;}
	.st18{fill:#C72623;}
	.st19{fill:#1A538A;}
	.st20{fill-rule:evenodd;clip-rule:evenodd;fill:#FFFFFF;}
	.st21{fill:#CCCCCC;}
	.st22{fill:#999999;}
	.st23{fill:#D1D3D4;}
	.st24{opacity:0.6;}
	.st25{opacity:0.4;}
	.st26{fill:#D6D6D6;}
	.st27{fill:#F2F2F2;}
	.st28{fill:none;stroke:#666666;stroke-miterlimit:10;}
	.st29{fill:#FF4555;}
	.st30{fill:#808080;}
	.st31{fill:url(#SVGID_7_);}
	.st32{fill:url(#SVGID_8_);}
	.st33{fill:#4D4D4D;}
	.st34{opacity:0.8;fill:#4D4D4D;}
	.st35{fill:none;stroke:#FFFFFF;stroke-miterlimit:10;}
	.st36{clip-path:url(#SVGID_18_);}
	.st37{fill:#B3B3B3;}
	.st38{fill:#606060;}
	.st39{fill:none;stroke:#C2C3C9;stroke-width:10;stroke-linecap:round;stroke-miterlimit:10;}
	.st40{fill:none;stroke:#0FA3F4;stroke-width:10;stroke-linecap:round;stroke-miterlimit:10;}
	.st41{fill:none;stroke:#0FA3F4;stroke-miterlimit:10;}
	.st42{fill:#8CC43F;}
	.st43{opacity:0.93;fill:#606060;}
	.st44{fill:#F15642;}
	.st45{fill:#3552BC;}
	.st46{opacity:0.57;fill:#606060;}
	.st47{opacity:0.35;fill:#606060;}
	.st48{opacity:0.35;fill:#EA6060;}
	.st49{opacity:0.95;fill:#E6E6E6;}
	.st50{opacity:0.3;}
	.st51{fill:url(#SVGID_21_);}
</style>
<g>
	<g>
		<circle class="st15" cx="34.6" cy="34.8" r="34"/>
	</g>
	<g>
		<path class="st4" d="M33.2,18.8c4.6,0,8.3,3.7,8.3,8.3s-3.7,8.3-8.3,8.3s-8.3-3.7-8.3-8.3S28.6,18.8,33.2,18.8 M33.2,39.6
			c9.2,0,16.7,3.7,16.7,8.3v4.2H16.6v-4.2C16.6,43.3,24,39.6,33.2,39.6z"/>
		<g>
			<g>
				<path class="st14" d="M34,17.6c3.6,0.2,6.6,2,8.1,5.3c2.3,5.1-1.2,11.2-7,11.2C24.9,33.9,22.8,18.2,34,17.6
					c0.5,0,1.3-1.6,1.1-1.6c-4.5,0.2-8.4,3.2-9.7,7.6c-1.9,5.9,2.4,12,8.7,12.1c4.4,0,8.4-3.4,9.7-7.5c2-6.1-2.5-11.8-8.6-12.2
					C34.6,15.9,33.7,17.5,34,17.6L34,17.6z"/>
				<path class="st14" d="M34,40.1c5.3,0.1,12.1,0.9,16,4.9c2.4,2.5,1.9,5.4,1.9,8.5c0.4-0.5,0.8-1,1.2-1.5c-8.4,0-16.8,0-25.2,0
					c-2.3,0-4.5,0-6.8,0c-0.8,0-3.1,0.4-3.8,0c-0.5-0.3-0.4-4.3-0.1-5.2c1.2-3.3,5.5-5,8.6-5.8C28.6,40.4,31.3,40.1,34,40.1
					c0.5,0,1.4-1.6,1.1-1.6c-5.9,0.1-13.3,1.2-17.3,6.1c-2.2,2.7-1.9,5.6-1.9,8.9c0,0.1,0,0.1,0.1,0.1c12,0,24,0,36,0
					c0.5,0,1.2-1.1,1.2-1.5c0-3.2,0.4-6.2-2-8.6c-4-4-10.9-4.8-16.2-5C34.6,38.5,33.7,40.1,34,40.1z"/>
			</g>
		</g>
	</g>
	<g>
		<g>
			<path class="st14" d="M67.9,35.5c-0.3,16.1-11.8,29.8-28,32.1c-12.3,1.8-24.8-3.5-32.2-13.6C-0.6,42.6-1,26.3,7.5,14.8
				C16.1,2.9,32.3-1.4,46,3.7C59.2,8.7,67.6,21.5,67.9,35.5c0,0.2,1.3-0.9,1.3-1.4C68.9,18.6,58.6,4.7,43.3,1
				C29.5-2.4,15.1,3.3,6.8,14.7C-1.6,26.2-2.4,42,5.4,54c8.5,13.1,25.4,18.8,40.1,13.6c14.1-5,23.4-18.7,23.7-33.5
				C69.2,33.9,67.9,34.9,67.9,35.5z"/>
		</g>
	</g>
</g>
</svg>
